<?xml version="1.0" encoding="utf-8"?>
<svg xmlns="http://www.w3.org/2000/svg" version="1.1" viewBox="-8 0 372 416" height="208">
<defs><marker id="triangle" viewBox="0 0 10 10" refX="9" refY="5" markerUnits="strokeWidth" markerWidth="10" markerHeight="10" orient="auto"><path d="M 0 0 L 10 5 L 0 10 z" fill="#000"/> </marker><marker id="arrowhead" markerWidth="10" markerHeight="7" refX="0" refY="3.5" orient="auto"><polygon points="0 0, 10 3.5, 0 7"/></marker></defs><line x1="50" y1="25" x2="100" y2="25" stroke="#000"/>
<line x1="50" y1="75" x2="100" y2="75" stroke="#000"/>
<line x1="50" y1="125" x2="100" y2="125" stroke="#000"/>
<line x1="50" y1="175" x2="100" y2="175" stroke="#000"/>
<line x1="50" y1="225" x2="100" y2="225" stroke="#000"/>
<line x1="50" y1="275" x2="100" y2="275" stroke="#000"/>
<line x1="50" y1="325" x2="100" y2="325" stroke="#000"/>
<line x1="50" y1="375" x2="100" y2="375" stroke="#000"/>
<line x1="250" y1="25" x2="300" y2="25" stroke="#000" marker-end="url(#triangle)"/>
<line x1="250" y1="75" x2="300" y2="75" stroke="#000" marker-end="url(#triangle)"/>
<line x1="250" y1="125" x2="300" y2="125" stroke="#000" marker-end="url(#triangle)"/>
<line x1="250" y1="175" x2="300" y2="175" stroke="#000" marker-end="url(#triangle)"/>
<line x1="250" y1="225" x2="300" y2="225" stroke="#000" marker-end="url(#triangle)"/>
<line x1="250" y1="275" x2="300" y2="275" stroke="#000" marker-end="url(#triangle)"/>
<line x1="250" y1="325" x2="300" y2="325" stroke="#000" marker-end="url(#triangle)"/>
<line x1="250" y1="375" x2="300" y2="375" stroke="#000" marker-end="url(#triangle)"/>
<rect x="0" y="0" width="16" height="16" stroke="#000" style="fill:#df5963" rx="5">
<animateMotion dur="4s" values="-6,136;-6,136;-6,136;42,17;92,17;167,17;167,17;167,17;167,17;167,17;167,17;167,17;167,17;167,17;242,17;292,17;342,136;342,136;342,136" calcMode="linear" repeatCount="indefinite"/>
</rect>
<rect x="0" y="0" width="16" height="16" stroke="#000" style="fill:#5bd59b" rx="5">
<animateMotion dur="4s" values="-6,152;-6,152;-6,152;42,67;92,67;167,67;167,67;167,67;167,67;167,67;167,67;167,67;167,67;167,67;242,67;292,67;342,152;342,152;342,152" calcMode="linear" repeatCount="indefinite"/>
</rect>
<rect x="0" y="0" width="16" height="16" stroke="#000" style="fill:#1f407a" rx="5">
<animateMotion dur="4s" values="-6,168;-6,168;-6,168;42,117;92,117;167,117;167,117;167,117;167,117;167,117;167,117;167,117;167,117;167,117;242,117;292,117;342,168;342,168;342,168" calcMode="linear" repeatCount="indefinite"/>
</rect>
<rect x="0" y="0" width="16" height="16" stroke="#000" style="fill:#505050" rx="5">
<animateMotion dur="4s" values="-6,184;-6,184;-6,184;42,167;92,167;167,167;167,167;167,167;167,167;167,167;167,167;167,167;167,167;167,167;242,167;292,167;342,184;342,184;342,184" calcMode="linear" repeatCount="indefinite"/>
</rect>
<rect x="0" y="0" width="16" height="16" stroke="#000" style="fill:#b7e0f4" rx="5">
<animateMotion dur="4s" values="-6,200;-6,200;-6,200;42,217;92,217;167,217;167,217;167,217;167,217;167,217;167,217;167,217;167,217;167,217;242,217;292,217;342,200;342,200;342,200" calcMode="linear" repeatCount="indefinite"/>
</rect>
<rect x="0" y="0" width="16" height="16" stroke="#000" style="fill:#1f407a" rx="5">
<animateMotion dur="4s" values="-6,216;-6,216;-6,216;42,267;92,267;167,267;167,267;167,267;167,267;167,267;167,267;167,267;167,267;167,267;242,267;292,267;342,216;342,216;342,216" calcMode="linear" repeatCount="indefinite"/>
</rect>
<rect x="0" y="0" width="16" height="16" stroke="#000" style="fill:#3c3c3c" rx="5">
<animateMotion dur="4s" values="-6,232;-6,232;-6,232;42,317;92,317;167,317;167,317;167,317;167,317;167,317;167,317;167,317;167,317;167,317;242,317;292,317;342,232;342,232;342,232" calcMode="linear" repeatCount="indefinite"/>
</rect>
<rect x="0" y="0" width="16" height="16" stroke="#000" style="fill:#def7de" rx="5">
<animateMotion dur="4s" values="-6,248;-6,248;-6,248;42,367;92,367;167,367;167,367;167,367;167,367;167,367;167,367;167,367;167,367;167,367;242,367;292,367;342,248;342,248;342,248" calcMode="linear" repeatCount="indefinite"/>
</rect>
<rect x="100" y="0" width="150" height="400" rx="10" style="fill:#a1e47e"/><text x="175" y="200" text-anchor="middle" alignment-baseline="middle" style="fill:#040; font-family:Futura,Calibri,Sans-serif; font-size:24px; font-weight: bold;font-style:italic;">DFT<tspan dy="10" style="font-size:18px;">8</tspan></text></svg>
